<svg height="512pt" viewBox="0 0 512 512" width="512pt" xmlns="http://www.w3.org/2000/svg"><path d="m492 58.296875c11.386719-4.015625 20-14.960937 20-28.296875 0-16.542969-13.457031-30-30-30h-452c-16.574219 0-30 13.425781-30 30 0 13.035156 8.359375 24.152344 20 28.28125v151.71875c0 5.523438 4.476562 10 10 10s10-4.476562 10-10v-150h166v392h-166v-162c0-5.523438-4.476562-10-10-10s-10 4.476562-10 10v163.703125c-11.386719 4.015625-20 14.960937-20 28.296875 0 16.542969 13.457031 30 30 30h452c16.574219 0 30-13.425781 30-30 0-13.035156-8.359375-24.152344-20-28.28125zm-462-38.296875h452c5.515625 0 10 4.484375 10 10 0 5.519531-4.480469 10-10 10h-452c-5.515625 0-10-4.484375-10-10 0-5.519531 4.480469-10 10-10zm196 40h246v20h-130c-5.523438 0-10 4.476562-10 10v31c-22.601562 4.566406-40 24.59375-40 49 0 5.523438 4.476562 10 10 10h80c5.523438 0 10-4.476562 10-10 0-24.382812-17.378906-44.429688-40-49v-21h120v120h-20v-10c0-5.523438-4.476562-10-10-10s-10 4.476562-10 10v40c0 5.523438 4.476562 10 10 10s10-4.476562 10-10v-10h20v212h-246zm116 80c13.316406 0 24.277344 8.609375 28.296875 20h-56.597656c4.019531-11.382812 14.980469-20 28.300781-20zm140 352h-452c-5.515625 0-10-4.484375-10-10 0-5.519531 4.480469-10 10-10h452c5.515625 0 10 4.484375 10 10 0 5.519531-4.480469 10-10 10zm0 0"/><path d="m186 290v-60c0-5.523438-4.476562-10-10-10s-10 4.476562-10 10v60c0 5.523438 4.476562 10 10 10s10-4.476562 10-10zm0 0"/><path d="m342 200c-5.523438 0-10 4.476562-10 10v20c0 5.523438 4.476562 10 10 10s10-4.476562 10-10v-20c0-5.523438-4.476562-10-10-10zm0 0"/><path d="m342 340c-5.523438 0-10 4.476562-10 10v20c0 5.523438 4.476562 10 10 10s10-4.476562 10-10v-20c0-5.523438-4.476562-10-10-10zm0 0"/><path d="m342 260c-5.523438 0-10 4.476562-10 10v40c0 5.523438 4.476562 10 10 10s10-4.476562 10-10v-40c0-5.523438-4.476562-10-10-10zm0 0"/><path d="m302 200c-5.523438 0-10 4.476562-10 10v20c0 5.523438 4.476562 10 10 10s10-4.476562 10-10v-20c0-5.523438-4.476562-10-10-10zm0 0"/><path d="m302 340c-5.523438 0-10 4.476562-10 10v20c0 5.523438 4.476562 10 10 10s10-4.476562 10-10v-20c0-5.523438-4.476562-10-10-10zm0 0"/><path d="m302 260c-5.523438 0-10 4.476562-10 10v40c0 5.523438 4.476562 10 10 10s10-4.476562 10-10v-40c0-5.523438-4.476562-10-10-10zm0 0"/><path d="m382 200c-5.523438 0-10 4.476562-10 10v20c0 5.523438 4.476562 10 10 10s10-4.476562 10-10v-20c0-5.523438-4.476562-10-10-10zm0 0"/><path d="m382 340c-5.523438 0-10 4.476562-10 10v20c0 5.523438 4.476562 10 10 10s10-4.476562 10-10v-20c0-5.523438-4.476562-10-10-10zm0 0"/><path d="m382 260c-5.523438 0-10 4.476562-10 10v40c0 5.523438 4.476562 10 10 10s10-4.476562 10-10v-40c0-5.523438-4.476562-10-10-10zm0 0"/><path d="m40 250c0 5.523438-4.476562 10-10 10s-10-4.476562-10-10 4.476562-10 10-10 10 4.476562 10 10zm0 0"/></svg>